<?xml version="1.0" encoding="utf-8"?>
<!-- Generator: Adobe Illustrator 26.2.1, SVG Export Plug-In . SVG Version: 6.00 Build 0)  -->
<svg version="1.1" id="레이어_1" xmlns="http://www.w3.org/2000/svg" xmlns:xlink="http://www.w3.org/1999/xlink" x="0px"
	 y="0px" viewBox="0 0 70.87 70.87" style="enable-background:new 0 0 70.87 70.87;" xml:space="preserve">
<style type="text/css">
	.st0{fill:#1E2B65;}
	.st1{fill:#FFFFFF;}
	.st2{fill:#D9D9D9;}
	.st3{fill:#040000;}
</style>
<g>
	<circle class="st2" cx="54.76" cy="18.96" r="4.19"/>
	<path class="st2" d="M35.43,16.74c-10.3,0-18.69,8.38-18.69,18.69c0,8.94,6.31,16.43,14.71,18.25V46.1
		c-4.33-1.62-7.42-5.78-7.42-10.67c0-6.28,5.11-11.4,11.4-11.4s11.4,5.11,11.4,11.4c0,4.89-3.1,9.05-7.43,10.67v7.58
		c8.4-1.83,14.71-9.31,14.71-18.25C54.12,25.13,45.74,16.74,35.43,16.74z"/>
	<path class="st2" d="M58.12,1.95H12.75c-5.95,0-10.8,4.84-10.8,10.8v45.37c0,5.95,4.84,10.8,10.8,10.8h18.71v-7.29H12.75
		c-1.94,0-3.51-1.57-3.51-3.51V12.75c0-1.93,1.57-3.51,3.51-3.51h45.36c1.93,0,3.51,1.57,3.51,3.51v45.37
		c0,1.93-1.57,3.51-3.51,3.51H39.41v7.29h18.71c5.95,0,10.8-4.84,10.8-10.8V12.75C68.91,6.8,64.07,1.95,58.12,1.95z"/>
</g>
</svg>
