<?xml version="1.0" encoding="utf-8"?>
<!-- Generator: Adobe Illustrator 26.2.1, SVG Export Plug-In . SVG Version: 6.00 Build 0)  -->
<svg version="1.1" id="레이어_1" xmlns="http://www.w3.org/2000/svg" xmlns:xlink="http://www.w3.org/1999/xlink" x="0px"
	 y="0px" viewBox="0 0 113.39 113.39" style="enable-background:new 0 0 113.39 113.39;" xml:space="preserve">
<style type="text/css">
	.st0{fill:#1E2B65;}
	.st1{fill:#FFFFFF;}
	.st2{fill:#D9D9D9;}
	.st3{fill:#040000;}
</style>
<path class="st0" d="M74.43,26.02c-6.92,0-13.89,1.62-17.74,4.73c-3.85-3.12-10.82-4.73-17.74-4.73c-10.33,0-20.78,3.58-20.78,10.41
	v47.89c0,1.68,1.36,3.05,3.05,3.05s3.05-1.36,3.05-3.05c0-1.11,5.05-4.32,14.69-4.32s14.69,3.21,14.69,4.32
	c0,1.68,1.36,3.05,3.05,3.05s3.05-1.36,3.05-3.05c0-1.11,5.05-4.32,14.69-4.32c9.64,0,14.69,3.21,14.69,4.32
	c0,1.68,1.36,3.05,3.05,3.05c1.68,0,3.05-1.36,3.05-3.05V36.43C95.22,29.6,84.76,26.02,74.43,26.02z M89.13,76.75
	c-3.95-1.88-9.34-2.84-14.69-2.84s-10.75,0.96-14.69,2.84V36.43c0-1.11,5.05-4.32,14.69-4.32c9.64,0,14.69,3.21,14.69,4.32V76.75z"
	/>
</svg>
