<?xml version="1.0" encoding="utf-8"?>
<!-- Generator: Adobe Illustrator 26.2.1, SVG Export Plug-In . SVG Version: 6.00 Build 0)  -->
<svg version="1.1" id="레이어_1" xmlns="http://www.w3.org/2000/svg" xmlns:xlink="http://www.w3.org/1999/xlink" x="0px"
	 y="0px" viewBox="0 0 113.39 113.39" style="enable-background:new 0 0 113.39 113.39;" xml:space="preserve">
<style type="text/css">
	.st0{fill:#1E2B65;}
	.st1{fill:#FFFFFF;}
	.st2{fill:#D9D9D9;}
	.st3{fill:#040000;}
</style>
<g>
	<path class="st0" d="M69.39,54.81c-8.85,0-16.06-7.2-16.06-16.06s7.2-16.05,16.06-16.05s16.06,7.2,16.06,16.05
		S78.25,54.81,69.39,54.81z M69.39,29.77c-4.95,0-8.98,4.03-8.98,8.98s4.03,8.98,8.98,8.98c4.95,0,8.98-4.03,8.98-8.98
		S74.35,29.77,69.39,29.77z"/>
	<path class="st0" d="M96.27,90.68H42.52c-3.13,0-5.67-2.54-5.67-5.67c0-14.44,11.75-26.2,26.2-26.2h12.7
		c14.45,0,26.2,11.75,26.2,26.2C101.94,88.14,99.39,90.68,96.27,90.68z M43.97,83.61h50.85c-0.72-9.89-9-17.72-19.07-17.72h-12.7
		C52.97,65.89,44.69,73.72,43.97,83.61z"/>
	<path class="st0" d="M28.04,67.87c-1.95,0-3.54-1.58-3.54-3.54V38.21c0-1.95,1.58-3.54,3.54-3.54s3.54,1.58,3.54,3.54v26.12
		C31.58,66.29,30,67.87,28.04,67.87z"/>
	<path class="st0" d="M41.1,54.81H14.98c-1.95,0-3.54-1.58-3.54-3.54c0-1.95,1.58-3.54,3.54-3.54H41.1c1.95,0,3.54,1.58,3.54,3.54
		C44.64,53.23,43.06,54.81,41.1,54.81z"/>
</g>
</svg>
