<?xml version="1.0" encoding="utf-8"?>
<!-- Generator: Adobe Illustrator 26.2.1, SVG Export Plug-In . SVG Version: 6.00 Build 0)  -->
<svg version="1.1" id="레이어_1" xmlns="http://www.w3.org/2000/svg" xmlns:xlink="http://www.w3.org/1999/xlink" x="0px"
	 y="0px" viewBox="0 0 70.87 70.87" style="enable-background:new 0 0 70.87 70.87;" xml:space="preserve">
<style type="text/css">
	.st0{fill:#1E2B65;}
	.st1{fill:#FFFFFF;}
	.st2{fill:#D9D9D9;}
	.st3{fill:#040000;}
</style>
<g>
	<path class="st2" d="M52.06,46.75H18.81c-3.25,0-5.9-2.65-5.9-5.9V7.6c0-3.25,2.65-5.9,5.9-5.9h33.25c3.25,0,5.9,2.65,5.9,5.9
		v33.25C57.96,44.1,55.31,46.75,52.06,46.75z M18.81,6.79C18.36,6.79,18,7.15,18,7.6v33.25c0,0.45,0.36,0.81,0.81,0.81h33.25
		c0.45,0,0.81-0.36,0.81-0.81V7.6c0-0.45-0.36-0.81-0.81-0.81H18.81z"/>
	<path class="st2" d="M35.43,69.17c-0.63,0-1.26-0.23-1.75-0.69L17.39,53.1c-0.76-0.72-1-1.82-0.62-2.79
		c0.39-0.97,1.32-1.61,2.36-1.61h32.6c1.04,0,1.98,0.64,2.36,1.61c0.39,0.97,0.14,2.07-0.62,2.79l-16.3,15.38
		C36.69,68.94,36.06,69.17,35.43,69.17z M25.54,53.79l9.89,9.33l9.89-9.33H25.54z"/>
	<path class="st2" d="M42.53,34.42c-0.52,0-1.04-0.22-1.41-0.62L30.25,21.93v10.58c0,1.05-0.85,1.91-1.91,1.91
		c-1.05,0-1.91-0.85-1.91-1.91V17.02c0-0.79,0.48-1.49,1.22-1.78s1.57-0.09,2.1,0.49L40.62,27.6V17.02c0-1.05,0.85-1.91,1.91-1.91
		s1.91,0.85,1.91,1.91v15.49c0,0.79-0.48,1.49-1.22,1.78C42.99,34.37,42.76,34.42,42.53,34.42z"/>
</g>
</svg>
