<?xml version="1.0" encoding="utf-8"?>
<!-- Generator: Adobe Illustrator 26.2.1, SVG Export Plug-In . SVG Version: 6.00 Build 0)  -->
<svg version="1.1" id="레이어_1" xmlns="http://www.w3.org/2000/svg" xmlns:xlink="http://www.w3.org/1999/xlink" x="0px"
	 y="0px" viewBox="0 0 226.77 226.77" style="enable-background:new 0 0 226.77 226.77;" xml:space="preserve">
<style type="text/css">
	.st0{fill:#1E2B65;}
	.st1{fill:#FFFFFF;}
	.st2{fill:#D9D9D9;}
	.st3{fill:#040000;}
</style>
<g>
	<path class="st3" d="M161.86,92.97h-3V79.35c0-6.71-5.45-12.16-12.16-12.16H80.07c-6.71,0-12.16,5.45-12.16,12.16v13.62h-3V79.35
		c0-8.36,6.8-15.16,15.16-15.16h66.64c8.36,0,15.16,6.8,15.16,15.16V92.97z"/>
	<path class="st3" d="M110.67,92.97h-3v-7.74c0-3.19-2.59-5.78-5.78-5.78H89.77c-3.19,0-5.78,2.59-5.78,5.78v7.74h-3v-7.74
		c0-4.84,3.94-8.78,8.78-8.78h12.13c4.84,0,8.78,3.94,8.78,8.78V92.97z"/>
	<path class="st3" d="M146.42,92.97h-3v-7.74c0-3.19-2.59-5.78-5.78-5.78h-12.13c-3.19,0-5.78,2.59-5.78,5.78v7.74h-3v-7.74
		c0-4.84,3.94-8.78,8.78-8.78h12.13c4.84,0,8.78,3.94,8.78,8.78V92.97z"/>
	<path class="st3" d="M178.07,155.74H48.7c-3.31,0-6.01-2.7-6.01-6.01v-18.47c0-0.3,0.09-0.59,0.26-0.84L65.16,97.4
		c0.28-0.41,0.75-0.66,1.24-0.66h93.96c0.5,0,0.97,0.25,1.24,0.66l22.21,33.02c0.17,0.25,0.26,0.54,0.26,0.84v18.47
		C184.08,153.05,181.38,155.74,178.07,155.74z M45.69,131.72v18.01c0,1.66,1.35,3.01,3.01,3.01h129.36c1.66,0,3.01-1.35,3.01-3.01
		v-18.01l-21.51-31.98H67.21L45.69,131.72z"/>
	<g>
		<rect x="54.29" y="154.24" class="st3" width="5" height="8.34"/>
		<rect x="167.48" y="154.24" class="st3" width="5" height="8.34"/>
	</g>
	<rect x="59.19" y="134.91" class="st3" width="108.38" height="3"/>
</g>
</svg>
