<?xml version="1.0" encoding="utf-8"?>
<!-- Generator: Adobe Illustrator 26.2.1, SVG Export Plug-In . SVG Version: 6.00 Build 0)  -->
<svg version="1.1" id="레이어_1" xmlns="http://www.w3.org/2000/svg" xmlns:xlink="http://www.w3.org/1999/xlink" x="0px"
	 y="0px" viewBox="0 0 226.77 226.77" style="enable-background:new 0 0 226.77 226.77;" xml:space="preserve">
<style type="text/css">
	.st0{fill:#1E2B65;}
	.st1{fill:#FFFFFF;}
	.st2{fill:#D9D9D9;}
	.st3{fill:#040000;}
</style>
<g>
	<path class="st3" d="M145.05,111.93H81.73c-4.35,0-7.88-3.54-7.88-7.88V81.33c0-4.35,3.54-7.88,7.88-7.88h63.32
		c4.35,0,7.88,3.54,7.88,7.88v22.72C152.93,108.4,149.39,111.93,145.05,111.93z M81.73,76.44c-2.69,0-4.88,2.19-4.88,4.88v22.72
		c0,2.69,2.19,4.88,4.88,4.88h63.32c2.69,0,4.88-2.19,4.88-4.88V81.33c0-2.69-2.19-4.88-4.88-4.88H81.73z"/>
	<path class="st3" d="M175.68,147.42H51.09c-8.57,0-15.54-6.97-15.54-15.54s6.97-15.54,15.54-15.54h124.6
		c8.57,0,15.54,6.97,15.54,15.54S184.25,147.42,175.68,147.42z M51.09,119.34c-6.92,0-12.54,5.63-12.54,12.54
		c0,6.92,5.63,12.54,12.54,12.54h124.6c6.92,0,12.54-5.63,12.54-12.54c0-6.92-5.63-12.54-12.54-12.54H51.09z"/>
	<rect x="111.39" y="110.43" class="st3" width="4" height="7.4"/>
	<rect x="111.39" y="124.48" class="st3" width="4" height="16.08"/>
	<g>
		<rect x="48.04" y="145.92" class="st3" width="4" height="7.4"/>
		<rect x="174.73" y="145.77" class="st3" width="4" height="7.56"/>
	</g>
</g>
</svg>
