<?xml version="1.0" encoding="utf-8"?>
<!-- Generator: Adobe Illustrator 26.2.1, SVG Export Plug-In . SVG Version: 6.00 Build 0)  -->
<svg version="1.1" id="레이어_1" xmlns="http://www.w3.org/2000/svg" xmlns:xlink="http://www.w3.org/1999/xlink" x="0px"
	 y="0px" viewBox="0 0 70.87 70.87" style="enable-background:new 0 0 70.87 70.87;" xml:space="preserve">
<style type="text/css">
	.st0{fill:#1E2B65;}
	.st1{fill:#FFFFFF;}
	.st2{fill:#D9D9D9;}
	.st3{fill:#040000;}
</style>
<path class="st2" d="M57.29,8.08H13.58c-6.51,0-11.8,5.29-11.8,11.8v21.73c0,6.51,5.29,11.8,11.8,11.8h16.44l5.41,9.38l5.41-9.38
	h16.44c6.51,0,11.8-5.29,11.8-11.8V19.88C69.09,13.37,63.8,8.08,57.29,8.08z M63.25,41.61c0,3.29-2.67,5.96-5.96,5.96H13.58
	c-3.29,0-5.96-2.67-5.96-5.96V19.88c0-3.29,2.67-5.96,5.96-5.96h43.72c3.29,0,5.96,2.67,5.96,5.96V41.61z"/>
</svg>
