<?xml version="1.0" encoding="utf-8"?>
<!-- Generator: Adobe Illustrator 26.2.1, SVG Export Plug-In . SVG Version: 6.00 Build 0)  -->
<svg version="1.1" id="레이어_1" xmlns="http://www.w3.org/2000/svg" xmlns:xlink="http://www.w3.org/1999/xlink" x="0px"
	 y="0px" viewBox="0 0 226.77 226.77" style="enable-background:new 0 0 226.77 226.77;" xml:space="preserve">
<style type="text/css">
	.st0{fill:#1E2B65;}
	.st1{fill:#FFFFFF;}
	.st2{fill:#D9D9D9;}
	.st3{fill:#040000;}
</style>
<g>
	<path class="st3" d="M184.84,102.58h-3c0-16-13.01-29.01-29.01-29.01H73.94c-16,0-29.01,13.01-29.01,29.01h-3
		c0-17.65,14.36-32.01,32.01-32.01h78.89C170.48,70.57,184.84,84.93,184.84,102.58z"/>
	<rect x="56.07" y="127.89" class="st3" width="114.64" height="3"/>
	<path class="st3" d="M203.01,109.08c-7.08,0-12.84,5.76-12.84,12.84h0l-0.04,7.93c0,9.42-7.67,17.09-17.09,17.09H53.69
		c-9.42,0-17.09-7.67-17.09-17.09v-7.93c0-7.08-5.76-12.84-12.84-12.84s-12.84,5.76-12.84,12.84c0,7.08,5.76,12.84,12.84,12.84v-3
		c-5.43,0-9.84-4.42-9.84-9.84s4.42-9.84,9.84-9.84s9.84,4.42,9.84,9.84v7.93c0,9.88,7.18,18.1,16.59,19.76v6.59h4v-6.26h118.38
		v6.26h4v-6.6c9.39-1.68,16.54-9.89,16.54-19.75l0.04-7.93h0v-0.01h0c0-5.43,4.42-9.84,9.84-9.84c5.43,0,9.84,4.42,9.84,9.84
		s-4.42,9.84-9.84,9.84v3c7.08,0,12.84-5.76,12.84-12.84C215.85,114.84,210.09,109.08,203.01,109.08z"/>
</g>
</svg>
