<?xml version="1.0" encoding="utf-8"?>
<!-- Generator: Adobe Illustrator 26.2.1, SVG Export Plug-In . SVG Version: 6.00 Build 0)  -->
<svg version="1.1" id="레이어_1" xmlns="http://www.w3.org/2000/svg" xmlns:xlink="http://www.w3.org/1999/xlink" x="0px"
	 y="0px" viewBox="0 0 226.77 226.77" style="enable-background:new 0 0 226.77 226.77;" xml:space="preserve">
<style type="text/css">
	.st0{fill:#1E2B65;}
	.st1{fill:#FFFFFF;}
	.st2{fill:#D9D9D9;}
	.st3{fill:#040000;}
</style>
<g>
	<path class="st3" d="M187.49,122.58v-23.7c2.37-0.65,4.12-2.82,4.12-5.38c0-3.08-2.51-5.58-5.59-5.58H40.75
		c-3.08,0-5.58,2.51-5.58,5.58c0,2.56,1.73,4.72,4.08,5.38v23.71c-2.35,0.66-4.08,2.82-4.08,5.38c0,3.08,2.51,5.58,5.58,5.58h4.94
		v5.31h4v-5.31h127.4v5.31h4v-5.31h4.94c3.08,0,5.59-2.51,5.59-5.58C191.61,125.4,189.86,123.24,187.49,122.58z M186.02,130.55
		H40.75c-1.43,0-2.58-1.16-2.58-2.58c0-1.43,1.16-2.59,2.58-2.59h1.5v-29.3h-1.5c-1.43,0-2.58-1.16-2.58-2.58s1.16-2.58,2.58-2.58
		h145.28c1.43,0,2.59,1.16,2.59,2.58s-1.18,2.58-2.62,2.58h-1.5v29.3h1.5c1.45,0,2.62,1.16,2.62,2.59
		C188.61,129.39,187.45,130.55,186.02,130.55z"/>
	<rect x="57.3" y="96.69" class="st3" width="112.17" height="2.81"/>
	<rect x="57.3" y="121.84" class="st3" width="112.17" height="2.81"/>
</g>
</svg>
