<?xml version="1.0" encoding="utf-8"?>
<!-- Generator: Adobe Illustrator 26.2.1, SVG Export Plug-In . SVG Version: 6.00 Build 0)  -->
<svg version="1.1" id="레이어_1" xmlns="http://www.w3.org/2000/svg" xmlns:xlink="http://www.w3.org/1999/xlink" x="0px"
	 y="0px" viewBox="0 0 113.39 113.39" style="enable-background:new 0 0 113.39 113.39;" xml:space="preserve">
<style type="text/css">
	.st0{fill:#1E2B65;}
	.st1{fill:#FFFFFF;}
	.st2{fill:#D9D9D9;}
	.st3{fill:#040000;}
</style>
<g>
	<path class="st0" d="M76.28,90.68H51.59c-5.53,0-10.04-4.5-10.04-10.04v-9.13c0-1.79,1.45-3.24,3.24-3.24s3.24,1.45,3.24,3.24v9.13
		c0,1.96,1.59,3.55,3.55,3.55h24.69c1.96,0,3.55-1.59,3.55-3.55V32.74c0-1.96-1.59-3.55-3.55-3.55H51.59
		c-1.96,0-3.55,1.59-3.55,3.55v9.13c0,1.79-1.45,3.24-3.24,3.24s-3.24-1.45-3.24-3.24v-9.13c0-5.53,4.5-10.04,10.04-10.04h24.69
		c5.53,0,10.04,4.5,10.04,10.04v47.91C86.32,86.18,81.81,90.68,76.28,90.68z"/>
	<polygon class="st0" points="59.5,47.71 50.52,38.73 50.52,49.75 27.07,49.75 27.07,63.64 50.52,63.64 50.52,74.66 59.5,65.67 
		68.49,56.69 	"/>
</g>
</svg>
