<?xml version="1.0" encoding="utf-8"?>
<!-- Generator: Adobe Illustrator 26.2.1, SVG Export Plug-In . SVG Version: 6.00 Build 0)  -->
<svg version="1.1" id="레이어_1" xmlns="http://www.w3.org/2000/svg" xmlns:xlink="http://www.w3.org/1999/xlink" x="0px"
	 y="0px" viewBox="0 0 113.39 113.39" style="enable-background:new 0 0 113.39 113.39;" xml:space="preserve">
<style type="text/css">
	.st0{fill:#1E2B65;}
	.st1{fill:#FFFFFF;}
	.st2{fill:#D9D9D9;}
	.st3{fill:#040000;}
</style>
<g>
	<path class="st1" d="M89.62,45.42h-0.72c-0.34,0-0.66,0.05-0.98,0.13c-4.59-12.82-16.84-22.03-31.22-22.03
		c-4.28,0-8.38,0.82-12.14,2.31c-8.87,3.5-15.86,10.72-19.09,19.72c-0.31-0.07-0.64-0.12-0.97-0.12h-0.72
		c-2.33,0-4.24,1.91-4.24,4.24v14.07c0,2.33,1.91,4.24,4.24,4.24h0.72c0.33,0,0.65-0.05,0.95-0.12
		c4.59,12.82,16.86,22.03,31.25,22.03c13.93,0,25.86-8.64,30.77-20.84c0.23-0.38,0.46-0.76,0.66-1.15c0.25,0.05,0.51,0.09,0.78,0.09
		h0.72c2.33,0,4.24-1.91,4.24-4.24V49.66C93.85,47.33,91.95,45.42,89.62,45.42z M29.33,56.69c0-11.33,6.93-21.08,16.77-25.23
		c4.33,11.37,15.33,19.45,28.22,19.45c3.06,0,6.02-0.46,8.81-1.31c0.61,2.26,0.94,4.64,0.94,7.09c0,3.38-0.62,6.61-1.74,9.6
		c-1.67,2.49-4.36,4.12-7.4,4.12H61.9c-1.61,0-2.91,1.3-2.91,2.91s1.3,2.91,2.91,2.91h13.02c0.33,0,0.65-0.03,0.97-0.05
		c-4.94,4.87-11.72,7.88-19.19,7.88C41.6,84.06,29.33,71.78,29.33,56.69z"/>
	<g>
		<circle class="st1" cx="45.6" cy="58.47" r="3.76"/>
		<circle class="st1" cx="68.35" cy="58.47" r="3.76"/>
	</g>
</g>
</svg>
