<?xml version="1.0" encoding="utf-8"?>
<!-- Generator: Adobe Illustrator 26.2.1, SVG Export Plug-In . SVG Version: 6.00 Build 0)  -->
<svg version="1.1" id="레이어_1" xmlns="http://www.w3.org/2000/svg" xmlns:xlink="http://www.w3.org/1999/xlink" x="0px"
	 y="0px" viewBox="0 0 70.87 70.87" style="enable-background:new 0 0 70.87 70.87;" xml:space="preserve">
<style type="text/css">
	.st0{fill:#1E2B65;}
	.st1{fill:#FFFFFF;}
	.st2{fill:#D9D9D9;}
	.st3{fill:#040000;}
</style>
<g>
	<path class="st2" d="M27.81,47.04c-0.48,0-0.97-0.13-1.4-0.38c-0.87-0.5-1.4-1.43-1.4-2.43v-17.6c0-1,0.54-1.93,1.4-2.43
		c0.87-0.5,1.94-0.5,2.81,0L44.46,33c0.87,0.5,1.4,1.43,1.4,2.43c0,1-0.54,1.93-1.4,2.43l-15.24,8.8
		C28.78,46.91,28.3,47.04,27.81,47.04z M30.62,31.5v7.87l6.81-3.93L30.62,31.5z"/>
	<path class="st2" d="M63.58,40.57v6.22c0,4.32-3.51,7.83-7.83,7.83H15.12c-4.32,0-7.83-3.51-7.83-7.83V24.08
		c0-4.32,3.51-7.83,7.83-7.83h40.64c4.32,0,7.83,3.51,7.83,7.83v6.22h5.62v-6.22c0-7.41-6.03-13.45-13.45-13.45H15.12
		c-7.41,0-13.45,6.03-13.45,13.45v22.71c0,7.41,6.03,13.45,13.45,13.45h40.64c7.41,0,13.45-6.03,13.45-13.45v-6.22H63.58z"/>
</g>
</svg>
