<?xml version="1.0" encoding="utf-8"?>
<!-- Generator: Adobe Illustrator 26.2.1, SVG Export Plug-In . SVG Version: 6.00 Build 0)  -->
<svg version="1.1" id="레이어_1" xmlns="http://www.w3.org/2000/svg" xmlns:xlink="http://www.w3.org/1999/xlink" x="0px"
	 y="0px" viewBox="0 0 226.77 226.77" style="enable-background:new 0 0 226.77 226.77;" xml:space="preserve">
<style type="text/css">
	.st0{fill:#1E2B65;}
	.st1{fill:#FFFFFF;}
	.st2{fill:#D9D9D9;}
	.st3{fill:#040000;}
</style>
<g>
	<path class="st3" d="M173.01,93.11c0-5.99-4.87-10.86-10.86-10.86H64.62c-5.99,0-10.86,4.87-10.86,10.86
		c0,5.83,4.62,10.58,10.38,10.84v57.67h3v-57.65h92.49v57.65h3v-57.67C168.4,103.7,173.01,98.94,173.01,93.11z M162.15,100.98H64.62
		c-4.33,0-7.86-3.53-7.86-7.86s3.53-7.86,7.86-7.86h97.53c4.33,0,7.86,3.53,7.86,7.86S166.49,100.98,162.15,100.98z"/>
	<path class="st3" d="M71.02,119.7H46.99V76.52c0-6.27-5.1-11.37-11.37-11.37h-1.87v3h1.87c4.62,0,8.37,3.76,8.37,8.37v85.11h3
		V122.7h24.03c4.62,0,8.37,3.76,8.37,8.37v30.55h3v-30.55C82.39,124.8,77.29,119.7,71.02,119.7z"/>
	<path class="st3" d="M155.75,119.7h24.03V76.52c0-6.27,5.1-11.37,11.37-11.37h1.87v3h-1.87c-4.62,0-8.37,3.76-8.37,8.37v85.11h-3
		V122.7h-24.03c-4.62,0-8.37,3.76-8.37,8.37v30.55h-3v-30.55C144.38,124.8,149.48,119.7,155.75,119.7z"/>
</g>
</svg>
